name new_emg_signals
nRows=91
nColumns=7
 
endheader
time	LGLTMED	LRF	LADDLONG	LBF	LTA	LGM
3.149999999999933	0.7516395110203328	0.948840847604699	0.9927890959364056	0.9163221899499834	0.87918800045443	0.9274100653604648
3.1599999999999326	0.7566057733807934	0.94980192598479	0.991492209693556	0.9167663660441452	0.8793641524560636	0.9295319643093878
3.1699999999999324	0.7616194389967064	0.9507607478794045	0.9901048598742708	0.9171977232672862	0.8795100339537574	0.931651888474833
3.179999999999932	0.7666756802671322	0.9517169453334452	0.9886312547525916	0.9176160724041958	0.8796243404933781	0.9337679465854034
3.189999999999932	0.7717695865332737	0.9526701211629304	0.9870756919935012	0.9180211713153552	0.8797058930897247	0.935878218039713
3.199999999999932	0.7768961739257275	0.9536198512012848	0.9854425483084064	0.9184127276057018	0.8797536410769641	0.937980756864271
3.2099999999999316	0.7820503955106158	0.9545656866053874	0.9837362690293122	0.9187904016173192	0.8797666643680514	0.9400735959860296
3.219999999999933	0.7872271517129932	0.9555071562066833	0.9819613576262364	0.9191538097292064	0.87974417513652	0.942154751810226
3.229999999999931	0.7924213009946944	0.9564437688929806	0.980122365190137	0.9195025279464104	0.8796855189359213	0.944222229091242
3.239999999999931	0.7976276707619862	0.957375016008036	0.9782238799009813	0.9198360957589744	0.8795901752732135	0.9462740260821286
3.2499999999999307	0.8028410684769914	0.9583003737580792	0.9762705164979212	0.9201540202504206	0.8794577576530782	0.9483081399454392
3.2599999999999305	0.8080562929451276	0.95921930561707	0.9742669057659832	0.9204557804348006	0.8792880131110187	0.9503225724054952
3.2699999999999303	0.8132681457489028	0.9601312647250674	0.9722176840514984	0.9207408318014076	0.8790808212541007	0.952315335619162
3.27999999999993	0.8184714427971158	0.9610356962767588	0.9701274828180732	0.9210086110462868	0.8788361928291776	0.9542844582391976
3.28999999999993	0.8236610259562535	0.9619320398999354	0.9680009182560028	0.92125854096896	0.8785542678389167	0.956227991640846
3.2999999999999297	0.8288317747296247	0.9628197320250076	0.9658425809610612	0.9214900355106574	0.8782353132258287	0.9581440162790577
3.3099999999999277	0.8339786179479977	0.9636982082466288	0.9636570257029564	0.9217025049086288	0.877879720143659	0.9600306481398576
3.3199999999999292	0.8390965454343088	0.9645669056774864	0.9614487613082788	0.9218953609385344	0.8774880008346779	0.9618860452460626
3.329999999999929	0.844180619603596	0.9654252652925696	0.9592222406871104	0.922068022215806	0.8770607851302786	0.9637084141742744
3.339999999999929	0.8492259869572042	0.9662727342609736	0.9569818510357804	0.9222199195255504	0.8765988165921965	0.9654960165373102
3.3499999999999286	0.8542278894287916	0.9671087682612208	0.95473190425043	0.9223505011493373	0.8761029483119774	0.9672471753842918
3.3599999999999284	0.8591816755373702	0.9679328337753416	0.9524766275870932	0.9224592381568048	0.8755741383875609	0.9689602814692309
3.369999999999928	0.8640828113013207	0.968744410355868	0.9502201546044924	0.9225456296292224	0.8750134450963072	0.97063379933871
3.379999999999928	0.86892689086592	0.969542992858206	0.9479665164249852	0.9226092077818088	0.8744220217840198	0.9722662731907308
3.3899999999999277	0.8737096467964649	0.970328093628278	0.9457196333478196	0.922649542950828	0.8738011114883298	0.9738563324588666
3.3999999999999293	0.8784269599890815	0.9710992446327864	0.9434833068469568	0.922666248411244	0.873152041313376	0.9754026970775758
3.409999999999929	0.8830748691520228	0.9718559995163594	0.9412612119833476	0.9226589849903396	0.8724762165710946	0.9769041823854956
3.419999999999929	0.8876495798116867	0.972597935568004	0.9390568902587596	0.9226274654429312	0.8717751147031919	0.9783597036236464
3.429999999999927	0.8921474727991285	0.973324655577575	0.9368737429353492	0.922571458553605	0.871050278997378	0.9797682799866316
3.4399999999999267	0.8965651121755438	0.9740357895628052	0.9347150248421232	0.92249079293188	0.8703033121128335	0.9811290381879364
3.4499999999999265	0.900899252557575	0.9747309963476662	0.9325838386868572	0.922385360467038	0.8695358694331833	0.9824412155071696
3.4599999999999262	0.9051468458066428	0.9754099649744624	0.9304831298900174	0.9222551194108388	0.8687496522701926	0.9837041622990303
3.469999999999926	0.9093050470483516	0.976072415934454	0.9284156819554824	0.9221000970586182	0.8679464009461274	0.9849173439580136
3.479999999999924	0.913371219991713	0.9767181022049752	0.9263841123915196	0.9219203920035232	0.8671278877859406	0.9860803423448412
3.489999999999924	0.9173429415231922	0.97734681008444	0.9243908691939184	0.921716175942116	0.8662959100524393	0.9871928566871094
3.4999999999999236	0.9212180055589612	0.9779583598202513	0.9224382279017352	0.9214876950144798	0.8654522828588205	0.9882547039688042
3.509999999999925	0.9249944261464929	0.9785526060292956	0.920528289234504	0.9212352706660244	0.8645988320933831	0.9892658188228788
3.519999999999925	0.928670439812442	0.9791294379142628	0.9186629773182944	0.9209593000238864	0.8637373873913313	0.9902262529397414
3.5299999999999248	0.9322445071578336	0.9796887792816557	0.9168440385059904	0.9206602557865328	0.8628697751875556	0.9911361740031176
3.5399999999999245	0.935715313704532	0.9802305883682528	0.915073040795025	0.920338685631943	0.8619978118833095	0.9919958641636007
3.5499999999999243	0.9390817699996042	0.980754857483436	0.9133513738434824	0.9199952111548778	0.8611232971580076	0.9928057180603984
3.559999999999924	0.9423430109862816	0.9812616124753238	0.9116802495831688	0.9196305263479408	0.8602480074560755	0.993566240402893
3.569999999999924	0.9454983946509208	0.9817509120291816	0.9100607034260632	0.9192453956430562	0.8593736896772834	0.9942780431259586
3.5799999999999237	0.9485474999557753	0.9822228468072312	0.9084935960583926	0.918840651531194	0.858502055097814	0.9949418421352456
3.5899999999999253	0.9514901240674212	0.9826775384399442	0.9069796158144356	0.9184171917784733	0.8576347735478126	0.9955584536608066
3.599999999999925	0.95432627889221	0.9831151383800808	0.9055192816201656	0.9179759762557412	0.8567734678693081	0.9961287902384168
3.609999999999925	0.9570561869339892	0.9835358266311977	0.9041129464946024	0.9175180233992104	0.8559197086762018	0.9966538563389394
3.619999999999923	0.9596802764945808	0.983939810362214	0.9027608015943226	0.9170444063207768	0.8550750094355404	0.9971347436665924
3.6299999999999226	0.9621991762434552	0.9843273224189308	0.901462880784022	0.916556248590282	0.854240821886494	0.9975726261480132
3.6399999999999224	0.9646137091885684	0.9846986197436666	0.900219065713243	0.91605471971676	0.8534185318106282	0.9979687546351363
3.649999999999922	0.9669248860842604	0.985053981715222	0.8990290913763608	0.9155410303595888	0.8526094551645773	0.9983244513471832
3.659999999999922	0.9691338983148524	0.9853937084235852	0.8978925521294816	0.9150164273038626	0.8518148345838265	0.9986411040786916
3.66999999999992	0.9712421102932688	0.9857181188954331	0.8968089081347536	0.9144821882349222	0.851035836264955	0.998920160202856
3.67999999999992	0.9732510514145768	0.986027549287593	0.895777492199172	0.913939616346927	0.8502735472326168	0.9991631205011976
3.6899999999999196	0.9751624076039022	0.9863223510648464	0.894797516972015	0.9133900348197932	0.849528972996553	0.9993715328523128
3.699999999999921	0.9769780124983478	0.9866028891777394	0.8938680824624557	0.9128347811977604	0.8488030356030248	0.9995469858134922
3.709999999999921	0.9786998383030484	0.9868695402544072	0.8929881838361102	0.91227520170185	0.8480965720835323	0.9996911021284924
3.7199999999999207	0.9803299863627266	0.987122690819108	0.8921567194466855	0.911712645506894	0.8474103333023348	0.9998055321936872
3.7299999999999205	0.981870677491393	0.987362735548956	0.8913724990564342	0.911148459012519	0.8467449832026723	0.9998919475135394
3.7399999999999203	0.983324242103396	0.987590075579913	0.8906342521967714	0.9105839801374996	0.8461010984503317	0.999952034175283
3.74999999999992	0.9846931101884492	0.9878051168728968	0.8899406366184993	0.910020532667432	0.8454791684719103	0.9999874863716298
3.75999999999992	0.985979801171486	0.988008268650724	0.889290246779461	0.9094594206862622	0.844879595883921	1.0
3.7699999999999196	0.9871869136967631	0.9881999419154964	0.8886816223173261	0.9089019231210392	0.8443026973074077	0.9999912663669002
3.779999999999921	0.9883171153739168	0.98838054805484	0.888113256457568	0.9083492884275371	0.84374870456128	0.9999629660268344
3.789999999999921	0.9893731325236658	0.9885504975437536	0.8875836043113777	0.907802729442284	0.8432177662258178	0.9999167627848088
3.7999999999999208	0.9903577399612188	0.9887101987474032	0.887091091023824	0.9072634184243434	0.8427099495659218	0.999854297889756
3.809999999999919	0.9912737508555348	0.9888600568282244	0.8866341197371344	0.9067324823091362	0.8422252428019119	0.9997771844430744
3.8199999999999186	0.9921240067024116	0.9890004727588784	0.8862110793370462	0.9062109981949727	0.8417635577138451	0.9996870020430668
3.8299999999999184	0.9929113674479936	0.9891318424406677	0.8858203519517959	0.905699989081862	0.841324732563636	0.9995852916830388
3.839999999999918	0.9936387017981828	0.9892545559259952	0.8854603201739285	0.9052004198818138	0.8409085353179033	0.9994735509188836
3.849999999999918	0.9943088777486664	0.9893689967423176	0.8851293739747264	0.9047131937200308	0.8405146671528153	0.9993532293209328
3.859999999999916	0.9949247533694048	0.9894755413134648	0.884825917280452	0.904239148547381	0.8401427662206973	0.9992257242248336
3.8699999999999157	0.9954891678766684	0.9895745584722176	0.884548374178995	0.903779054085697	0.8397924116555384	0.999092376796083
3.8799999999999173	0.9960049330251204	0.9896664090562314	0.8842951947254848	0.9033336091273207	0.8394631277923935	0.9989544684226784
3.889999999999917	0.9964748248510222	0.9897514455781758	0.8840648603165577	0.9029034392094604	0.8391543885728306	0.9988132174508876
3.899999999999917	0.9969015757964834	0.9898300119609656	0.8838558886054365	0.9024890946816896	0.8388656221065915	0.9986697762784896
3.9099999999999167	0.9972878672421492	0.989902443329884	0.883666837934966	0.9020910491822745	0.838596215357474	0.9985252288194542
3.9199999999999164	0.9976363224740146	0.9899690658558112	0.8834963112723653	0.901709698536395	0.8383455189195302	0.9983805883519512
3.9299999999999162	0.9979495001073544	0.9900301966464164	0.8833429596377939	0.9013453600867558	0.8381128518478538	0.998236795759523
3.939999999999916	0.9982298879888104	0.9900861436844752	0.8832054850274422	0.9009982724644804	0.8378975065062308	0.9980947181724816
3.949999999999916	0.9984798975951792	0.9901372058125464	0.8830826428401293	0.9006685958056042	0.8376987533923056	0.9979551480139268
3.9599999999999156	0.9987018589450396	0.9901836727620555	0.8829732438228615	0.9003564124153003	0.8375158459003508	0.9978188024522032
3.969999999999917	0.998898016037127	0.9902258252224194	0.8828761555555302	0.9000617278788182	0.8373480249826978	0.9976863232589056
3.979999999999917	0.999070522826494	0.9902639349434288	0.8827903034973639	0.8997844726149511	0.8371945236741012	0.9975582770694204
3.9899999999999167	0.9992214397472838	0.9902982648625064	0.8827146716193126	0.8995245038646528	0.8370545714479503	0.9974351560414788
3.9999999999999147	0.9993527307883452	0.9903290692473335	0.8826483026469075	0.899281608104801	0.8369273983787843	0.9973173789060432
4.0099999999999145	0.9994662611258546	0.9903565938432	0.8825902979384568	0.8990555038746404	0.8368122390900744	0.9972052924038072
4.019999999999914	0.9995637953147491	0.9903810760131004	0.8825398170236094	0.8988458449998454	0.8367083364695536	0.997099173098538
4.029999999999914	0.9996469960383852	0.9904027448583071	0.8824960768278349	0.8986522241974643	0.8366149451363885	0.9969992295563652
4.039999999999912	0.9997174234125572	0.9904218213073298	0.8824583506088186	0.8984741770423238	0.8365313346460936	0.9969056048774004
4.049999999999912	0.9997765348366529	0.990438518163228	0.8824259666315014	0.8983111862736669	0.8364567924206064	0.9968183795630408
